<svg version="1.2" xmlns="http://www.w3.org/2000/svg" xmlns:xlink="http://www.w3.org/1999/xlink" overflow="visible" preserveAspectRatio="none" viewBox="0 0 22 22" width="22" height="22"><g transform="translate(0, 0)"><g transform="translate(0, 0) rotate(0)"><path d="M21,1.5c0,-0.275 -0.224,-0.5 -0.5,-0.5h-19c-0.276,0 -0.5,0.225 -0.5,0.5v13.363l5.162,-4.731c0.197,-0.18 0.503,-0.175 0.692,0.015l2.4,2.4l5.908,-5.415c0.197,-0.181 0.503,-0.175 0.692,0.015l5.146,6.146zM21,14.707l-5.515,-6.515l-5.523,5.063l2.892,2.892c0.195,0.195 0.195,0.511 0,0.707c-0.098,0.097 -0.226,0.146 -0.354,0.146c-0.128,0 -0.256,-0.049 -0.354,-0.146l-5.661,-5.662l-5.485,5.028v1.78h20zM21,19h-20v1.5c0,0.275 0.224,0.5 0.5,0.5h19c0.276,0 0.5,-0.225 0.5,-0.5zM20.5,0c0.829,0 1.5,0.672 1.5,1.5v19c0,0.828 -0.671,1.5 -1.5,1.5h-19c-0.829,0 -1.5,-0.672 -1.5,-1.5v-19c0,-0.828 0.671,-1.5 1.5,-1.5zM5.5,7c0.551,0 1,-0.449 1,-1c0,-0.551 -0.449,-1 -1,-1c-0.551,0 -1,0.449 -1,1c0,0.551 0.449,1 1,1zM5.5,4c1.104,0 2,0.896 2,2c0,1.104 -0.896,2 -2,2c-1.104,0 -2,-0.896 -2,-2c0,-1.104 0.896,-2 2,-2z" style="stroke: rgb(140, 140, 140); stroke-width: 0; stroke-linecap: butt; stroke-linejoin: miter; fill: rgb(94, 146, 252);" vector-effect="non-scaling-stroke"/></g><defs><path id="path-1608358022997391" d="M21,1.5c0,-0.275 -0.224,-0.5 -0.5,-0.5h-19c-0.276,0 -0.5,0.225 -0.5,0.5v13.363l5.162,-4.731c0.197,-0.18 0.503,-0.175 0.692,0.015l2.4,2.4l5.908,-5.415c0.197,-0.181 0.503,-0.175 0.692,0.015l5.146,6.146zM21,14.707l-5.515,-6.515l-5.523,5.063l2.892,2.892c0.195,0.195 0.195,0.511 0,0.707c-0.098,0.097 -0.226,0.146 -0.354,0.146c-0.128,0 -0.256,-0.049 -0.354,-0.146l-5.661,-5.662l-5.485,5.028v1.78h20zM21,19h-20v1.5c0,0.275 0.224,0.5 0.5,0.5h19c0.276,0 0.5,-0.225 0.5,-0.5zM20.5,0c0.829,0 1.5,0.672 1.5,1.5v19c0,0.828 -0.671,1.5 -1.5,1.5h-19c-0.829,0 -1.5,-0.672 -1.5,-1.5v-19c0,-0.828 0.671,-1.5 1.5,-1.5zM5.5,7c0.551,0 1,-0.449 1,-1c0,-0.551 -0.449,-1 -1,-1c-0.551,0 -1,0.449 -1,1c0,0.551 0.449,1 1,1zM5.5,4c1.104,0 2,0.896 2,2c0,1.104 -0.896,2 -2,2c-1.104,0 -2,-0.896 -2,-2c0,-1.104 0.896,-2 2,-2z" vector-effect="non-scaling-stroke"/></defs></g></svg>