<svg version="1.2" xmlns="http://www.w3.org/2000/svg" xmlns:xlink="http://www.w3.org/1999/xlink" overflow="visible" preserveAspectRatio="none" viewBox="0 0 20 23" width="20" height="23"><g transform="translate(0, 0)"><g transform="translate(-1.6653345369377348e-16, 8.881784197001252e-16) rotate(0)"><path d="M19,19h-18v-0.379c0,-0.133 0.052,-0.259 0.146,-0.353l0.975,-0.975c0.567,-0.566 0.879,-1.32 0.879,-2.121v-7.172c0,-3.859 3.141,-7 7,-7c3.86,0 7,3.141 7,7v7.172c0,0.801 0.313,1.555 0.879,2.121l0.975,0.975c0.094,0.094 0.146,0.22 0.146,0.353zM10,22c-1.302,0 -2.401,-0.839 -2.815,-2h5.63c-0.414,1.161 -1.513,2 -2.815,2zM19.561,17.561l-0.975,-0.975c-0.375,-0.375 -0.586,-0.884 -0.586,-1.414v-7.172c0,-4.418 -3.582,-8 -8,-8c-4.418,0 -8,3.582 -8,8v7.172c0,0.53 -0.211,1.039 -0.586,1.414l-0.975,0.975c-0.281,0.281 -0.439,0.663 -0.439,1.06v1.379h6.142c0.446,1.723 1.997,3 3.858,3c1.861,0 3.412,-1.277 3.858,-3h6.142v-1.379c0,-0.397 -0.158,-0.779 -0.439,-1.06z" style="stroke: rgb(140, 140, 140); stroke-width: 0; stroke-linecap: butt; stroke-linejoin: miter; fill: rgb(110, 124, 152);" vector-effect="non-scaling-stroke"/></g><defs><path id="path-1608358023085751" d="M19,19h-18v-0.379c0,-0.133 0.052,-0.259 0.146,-0.353l0.975,-0.975c0.567,-0.566 0.879,-1.32 0.879,-2.121v-7.172c0,-3.859 3.141,-7 7,-7c3.86,0 7,3.141 7,7v7.172c0,0.801 0.313,1.555 0.879,2.121l0.975,0.975c0.094,0.094 0.146,0.22 0.146,0.353zM10,22c-1.302,0 -2.401,-0.839 -2.815,-2h5.63c-0.414,1.161 -1.513,2 -2.815,2zM19.561,17.561l-0.975,-0.975c-0.375,-0.375 -0.586,-0.884 -0.586,-1.414v-7.172c0,-4.418 -3.582,-8 -8,-8c-4.418,0 -8,3.582 -8,8v7.172c0,0.53 -0.211,1.039 -0.586,1.414l-0.975,0.975c-0.281,0.281 -0.439,0.663 -0.439,1.06v1.379h6.142c0.446,1.723 1.997,3 3.858,3c1.861,0 3.412,-1.277 3.858,-3h6.142v-1.379c0,-0.397 -0.158,-0.779 -0.439,-1.06z" vector-effect="non-scaling-stroke"/></defs></g></svg>