<svg version="1.2" xmlns="http://www.w3.org/2000/svg" xmlns:xlink="http://www.w3.org/1999/xlink" overflow="visible" preserveAspectRatio="none" viewBox="0 0 22.163899999999998 19" width="22.163899999999998" height="19"><g transform="translate(0, 0)"><g transform="translate(0, 0) rotate(0)"><path d="M12.1639,5.1057c0.001,-2.173 1.397,-4.004 3.334,-4.693v3.026l1.666,1.111l1.667,-1.112v-3.026c1.938,0.688 3.333,2.519 3.333,4.692c0,1.959 -1.138,3.638 -2.778,4.458l-0.002,7.21c-0.001,1.227 -0.995,2.221 -2.222,2.223c-1.227,0 -2.222,-0.995 -2.223,-2.223l0.002,-7.21c-1.64,-0.819 -2.777,-2.496 -2.777,-4.456zM14.3859,2.3887c-0.685,0.702 -1.112,1.658 -1.112,2.717c0,1.758 1.176,3.227 2.778,3.708l-0.001,7.959c0,0.612 0.497,1.109 1.111,1.11c0.614,0 1.112,-0.498 1.111,-1.112l0.002,-7.957c1.602,-0.481 2.777,-1.951 2.778,-3.709c0,-1.059 -0.426,-2.015 -1.111,-2.715l-0.118,1.759l-2.388,1.574l-0.574,-0.001l-2.439,-1.762zM13.898,17.912c-1.317,0.692 -2.811,1.088 -4.398,1.088c-5.238,0 -9.5,-4.262 -9.5,-9.5c0,-5.238 4.262,-9.5 9.5,-9.5c1.182,0 2.309,0.227 3.354,0.623c-0.259,0.248 -0.5,0.514 -0.713,0.801c-0.832,-0.271 -1.718,-0.424 -2.641,-0.424c-4.695,0 -8.5,3.806 -8.5,8.5c0,4.695 3.805,8.5 8.5,8.5c1.53,0 2.961,-0.41 4.201,-1.117c0.012,0.361 0.083,0.705 0.197,1.029zM12.9056,12.0428l-1.858,-1.073c-0.074,-0.042 -0.162,-0.029 -0.225,0.026c-0.198,0.174 -0.431,0.308 -0.687,0.393c-0.081,0.027 -0.136,0.098 -0.136,0.182v2.141c0,0.124 0.114,0.226 0.236,0.205c1.095,-0.18 2.053,-0.748 2.729,-1.567c0.079,-0.096 0.048,-0.244 -0.059,-0.307zM9.4996,10.4998c0.552,0 1,-0.447 1,-1c0,-0.552 -0.448,-1 -1,-1c-0.552,0 -1,0.448 -1,1c0,0.553 0.448,1 1,1zM8.9996,13.7118l-0.001,-2.141c0,-0.085 -0.055,-0.156 -0.136,-0.182c-0.255,-0.086 -0.488,-0.219 -0.686,-0.393c-0.063,-0.055 -0.151,-0.068 -0.224,-0.026l-1.859,1.073c-0.107,0.063 -0.138,0.211 -0.059,0.307c0.676,0.818 1.634,1.387 2.727,1.567c0.123,0.021 0.238,-0.081 0.238,-0.205zM7.4396,10.1128c0.082,-0.048 0.109,-0.141 0.087,-0.234c-0.055,-0.224 -0.05,-0.535 0.005,-0.761c0.022,-0.09 -0.008,-0.182 -0.089,-0.228l-1.859,-1.073c-0.107,-0.063 -0.248,-0.016 -0.292,0.099c-0.187,0.493 -0.292,1.026 -0.292,1.584c0,0.559 0.105,1.092 0.292,1.584c0.044,0.116 0.185,0.162 0.292,0.1zM6.0936,6.9568l1.859,1.074c0.073,0.042 0.161,0.029 0.224,-0.027c0.198,-0.174 0.432,-0.306 0.687,-0.392c0.08,-0.028 0.136,-0.098 0.136,-0.182l0.001,-2.142c0,-0.124 -0.115,-0.225 -0.237,-0.205c-1.095,0.181 -2.053,0.748 -2.729,1.568c-0.079,0.095 -0.048,0.244 0.059,0.306zM13.6906,13.0528c-1.01,1.19 -2.513,1.947 -4.191,1.947c-3.033,0 -5.5,-2.466 -5.5,-5.5c0,-3.033 2.467,-5.5 5.5,-5.5c0.515,0 1.012,0.077 1.486,0.209c-0.043,0.295 -0.071,0.594 -0.071,0.897c0,0.053 0.008,0.103 0.009,0.156c-0.223,-0.074 -0.45,-0.14 -0.687,-0.179c-0.122,-0.02 -0.236,0.081 -0.236,0.205v2.142c0,0.085 0.055,0.155 0.136,0.182c0.255,0.086 0.488,0.218 0.686,0.392c0.063,0.055 0.151,0.069 0.224,0.026l0.472,-0.273c0.143,0.302 0.304,0.595 0.494,0.869l-0.461,0.266c-0.078,0.046 -0.11,0.134 -0.09,0.223c0.053,0.235 0.055,0.533 0.001,0.77c-0.02,0.089 0.012,0.178 0.09,0.223l1.863,1.076c0.1,0.058 0.223,0.015 0.276,-0.084z" style="stroke: rgb(140, 140, 140); stroke-width: 0; stroke-linecap: butt; stroke-linejoin: miter; fill: rgb(94, 146, 252);" vector-effect="non-scaling-stroke"/></g><defs><path id="path-1608358023066664" d="M12.1639,5.1057c0.001,-2.173 1.397,-4.004 3.334,-4.693v3.026l1.666,1.111l1.667,-1.112v-3.026c1.938,0.688 3.333,2.519 3.333,4.692c0,1.959 -1.138,3.638 -2.778,4.458l-0.002,7.21c-0.001,1.227 -0.995,2.221 -2.222,2.223c-1.227,0 -2.222,-0.995 -2.223,-2.223l0.002,-7.21c-1.64,-0.819 -2.777,-2.496 -2.777,-4.456zM14.3859,2.3887c-0.685,0.702 -1.112,1.658 -1.112,2.717c0,1.758 1.176,3.227 2.778,3.708l-0.001,7.959c0,0.612 0.497,1.109 1.111,1.11c0.614,0 1.112,-0.498 1.111,-1.112l0.002,-7.957c1.602,-0.481 2.777,-1.951 2.778,-3.709c0,-1.059 -0.426,-2.015 -1.111,-2.715l-0.118,1.759l-2.388,1.574l-0.574,-0.001l-2.439,-1.762zM13.898,17.912c-1.317,0.692 -2.811,1.088 -4.398,1.088c-5.238,0 -9.5,-4.262 -9.5,-9.5c0,-5.238 4.262,-9.5 9.5,-9.5c1.182,0 2.309,0.227 3.354,0.623c-0.259,0.248 -0.5,0.514 -0.713,0.801c-0.832,-0.271 -1.718,-0.424 -2.641,-0.424c-4.695,0 -8.5,3.806 -8.5,8.5c0,4.695 3.805,8.5 8.5,8.5c1.53,0 2.961,-0.41 4.201,-1.117c0.012,0.361 0.083,0.705 0.197,1.029zM12.9056,12.0428l-1.858,-1.073c-0.074,-0.042 -0.162,-0.029 -0.225,0.026c-0.198,0.174 -0.431,0.308 -0.687,0.393c-0.081,0.027 -0.136,0.098 -0.136,0.182v2.141c0,0.124 0.114,0.226 0.236,0.205c1.095,-0.18 2.053,-0.748 2.729,-1.567c0.079,-0.096 0.048,-0.244 -0.059,-0.307zM9.4996,10.4998c0.552,0 1,-0.447 1,-1c0,-0.552 -0.448,-1 -1,-1c-0.552,0 -1,0.448 -1,1c0,0.553 0.448,1 1,1zM8.9996,13.7118l-0.001,-2.141c0,-0.085 -0.055,-0.156 -0.136,-0.182c-0.255,-0.086 -0.488,-0.219 -0.686,-0.393c-0.063,-0.055 -0.151,-0.068 -0.224,-0.026l-1.859,1.073c-0.107,0.063 -0.138,0.211 -0.059,0.307c0.676,0.818 1.634,1.387 2.727,1.567c0.123,0.021 0.238,-0.081 0.238,-0.205zM7.4396,10.1128c0.082,-0.048 0.109,-0.141 0.087,-0.234c-0.055,-0.224 -0.05,-0.535 0.005,-0.761c0.022,-0.09 -0.008,-0.182 -0.089,-0.228l-1.859,-1.073c-0.107,-0.063 -0.248,-0.016 -0.292,0.099c-0.187,0.493 -0.292,1.026 -0.292,1.584c0,0.559 0.105,1.092 0.292,1.584c0.044,0.116 0.185,0.162 0.292,0.1zM6.0936,6.9568l1.859,1.074c0.073,0.042 0.161,0.029 0.224,-0.027c0.198,-0.174 0.432,-0.306 0.687,-0.392c0.08,-0.028 0.136,-0.098 0.136,-0.182l0.001,-2.142c0,-0.124 -0.115,-0.225 -0.237,-0.205c-1.095,0.181 -2.053,0.748 -2.729,1.568c-0.079,0.095 -0.048,0.244 0.059,0.306zM13.6906,13.0528c-1.01,1.19 -2.513,1.947 -4.191,1.947c-3.033,0 -5.5,-2.466 -5.5,-5.5c0,-3.033 2.467,-5.5 5.5,-5.5c0.515,0 1.012,0.077 1.486,0.209c-0.043,0.295 -0.071,0.594 -0.071,0.897c0,0.053 0.008,0.103 0.009,0.156c-0.223,-0.074 -0.45,-0.14 -0.687,-0.179c-0.122,-0.02 -0.236,0.081 -0.236,0.205v2.142c0,0.085 0.055,0.155 0.136,0.182c0.255,0.086 0.488,0.218 0.686,0.392c0.063,0.055 0.151,0.069 0.224,0.026l0.472,-0.273c0.143,0.302 0.304,0.595 0.494,0.869l-0.461,0.266c-0.078,0.046 -0.11,0.134 -0.09,0.223c0.053,0.235 0.055,0.533 0.001,0.77c-0.02,0.089 0.012,0.178 0.09,0.223l1.863,1.076c0.1,0.058 0.223,0.015 0.276,-0.084z" vector-effect="non-scaling-stroke"/></defs></g></svg>